<?xml version="1.0" standalone="no"?>
<!DOCTYPE svg PUBLIC "-//W3C//DTD SVG 20010904//EN"
 "http://www.w3.org/TR/2001/REC-SVG-20010904/DTD/svg10.dtd">
<svg version="1.0" xmlns="http://www.w3.org/2000/svg"
 width="2560.000000pt" height="572.000000pt" viewBox="0 0 2560.000000 572.000000"
 fill="#0000FF"
 preserveAspectRatio="xMidYMid meet">

<g transform="translate(0.000000,572.000000) scale(0.100000,-0.100000)"
fill="#FFFFFF" stroke="none">
<path d="M7537 5341 c-153 -50 -198 -128 -205 -351 -9 -285 55 -383 273 -421
148 -25 319 1 415 65 78 51 119 205 105 389 -13 173 -52 244 -162 299 -67 32
-70 33 -218 35 -125 3 -160 0 -208 -16z"/>
<path d="M5630 4093 c-314 -47 -483 -111 -686 -258 -21 -15 -23 -14 -43 29
-72 148 -231 196 -588 176 -171 -10 -438 -34 -495 -46 l-28 -6 0 -244 0 -244
190 0 190 0 0 -1100 0 -1100 380 0 380 0 0 1035 0 1034 38 10 c109 29 223 44
367 48 326 11 454 -31 517 -171 l23 -51 6 -810 c5 -729 7 -816 23 -870 19 -65
53 -130 83 -157 70 -64 235 -94 453 -84 117 6 408 35 508 52 l32 5 -2 242 -3
242 -167 3 -167 2 -3 783 -3 782 -28 100 c-89 327 -285 525 -579 585 -87 18
-316 26 -398 13z"/>
<path d="M1075 4043 c-91 -3 -427 -31 -495 -41 l-45 -7 -3 -247 -2 -248 170 0
170 0 0 -687 c0 -730 6 -854 45 -1010 38 -148 84 -235 174 -323 118 -116 265
-191 456 -232 118 -25 337 -27 450 -3 173 36 370 119 519 219 38 25 71 46 75
46 3 0 14 -20 24 -45 62 -149 220 -199 562 -177 166 11 394 34 473 47 l32 6
-2 242 -3 242 -167 3 -167 2 -4 963 c-3 859 -5 968 -19 1016 -37 121 -102 184
-223 217 -103 28 -458 18 -802 -23 l-53 -6 0 -248 0 -249 170 0 170 0 -2 -772
-3 -772 -60 -12 c-236 -48 -548 -55 -676 -15 -135 43 -183 105 -199 258 -5 48
-10 415 -10 815 0 500 -4 744 -11 780 -25 119 -94 201 -193 232 -51 16 -210
38 -251 34 -11 -1 -56 -3 -100 -5z"/>
<path d="M7695 4044 c-100 -7 -508 -44 -542 -50 l-33 -6 0 -244 0 -244 180 0
180 0 0 -1110 0 -1110 385 0 385 0 0 1158 c-1 636 -5 1201 -9 1255 -23 252
-119 337 -401 350 -47 2 -112 3 -145 1z"/>
<path d="M20870 4026 c-76 -22 -98 -34 -146 -78 -63 -58 -84 -105 -84 -194 0
-55 5 -81 25 -121 43 -86 103 -121 310 -183 161 -48 203 -67 239 -110 20 -24
26 -42 26 -79 0 -93 -73 -156 -193 -168 -149 -14 -256 55 -289 185 l-10 42
-74 0 -73 0 5 -32 c28 -166 111 -265 255 -309 95 -29 255 -24 344 11 85 33
158 108 181 185 19 68 14 156 -13 212 -41 88 -116 132 -321 187 -204 55 -252
87 -259 173 -5 61 20 104 79 135 61 31 186 32 244 1 50 -27 88 -70 104 -118
l12 -35 74 0 74 0 -6 33 c-3 17 -20 61 -37 97 -58 117 -178 181 -341 179 -44
0 -101 -6 -126 -13z"/>
<path d="M8692 3763 l3 -268 163 -3 162 -2 0 -1105 0 -1105 380 0 380 0 0 390
0 390 199 0 198 0 353 -647 c194 -357 371 -679 393 -718 107 -185 224 -245
477 -245 82 0 541 28 648 40 1 0 1 111 0 248 l-3 247 -213 5 -212 5 -345 595
-345 595 68 26 c322 123 485 346 524 717 9 86 9 138 0 225 -16 149 -34 212
-92 333 -136 281 -453 471 -875 525 -72 9 -348 13 -983 16 l-882 4 2 -268z
m1678 -267 c262 -40 378 -155 397 -397 15 -189 -77 -366 -234 -452 -106 -57
-177 -67 -480 -67 l-273 0 0 465 0 465 248 0 c163 0 279 -5 342 -14z"/>
<path d="M12820 3500 l0 -530 335 0 335 0 0 65 0 65 -260 0 -260 0 0 465 0
465 -75 0 -75 0 0 -530z"/>
<path d="M13972 3978 c-11 -29 -104 -266 -206 -526 -102 -260 -186 -474 -186
-477 0 -3 35 -5 78 -5 l77 0 50 135 49 135 231 -2 230 -3 49 -132 49 -133 80
0 c71 0 78 2 73 18 -4 9 -97 248 -208 530 l-201 512 -73 0 -73 0 -19 -52z
m186 -380 c45 -120 82 -220 82 -223 0 -3 -79 -5 -175 -5 -96 0 -175 3 -175 6
0 4 34 95 74 203 41 108 80 209 86 225 6 16 14 25 19 20 4 -5 44 -107 89 -226z"/>
<path d="M15100 3688 c0 -189 5 -374 10 -413 13 -89 49 -162 104 -213 87 -80
178 -107 334 -100 84 4 109 10 164 35 107 50 172 132 197 251 7 34 11 186 11
417 l0 365 -75 0 -75 0 0 -377 c0 -377 0 -378 -24 -429 -41 -87 -117 -129
-236 -129 -62 0 -85 5 -132 28 -32 16 -67 42 -79 58 -45 64 -49 100 -49 486
l0 363 -75 0 -75 0 0 -342z"/>
<path d="M16170 3500 l0 -530 75 0 75 0 0 407 c0 301 3 404 11 396 6 -6 123
-188 259 -405 l247 -393 86 -3 87 -3 0 531 0 530 -75 0 -75 0 -2 -410 -3 -409
-255 407 -256 407 -87 3 -87 3 0 -531z"/>
<path d="M17280 3500 l0 -530 80 0 80 0 0 530 0 530 -80 0 -80 0 0 -530z"/>
<path d="M17610 4027 c0 -2 88 -239 195 -527 107 -287 195 -524 195 -526 0 -2
35 -4 79 -4 76 0 79 1 90 28 25 63 381 1023 381 1028 0 3 -34 4 -77 2 l-76 -3
-156 -432 c-86 -238 -158 -433 -161 -433 -3 0 -75 195 -160 433 l-156 432 -77
3 c-42 2 -77 1 -77 -1z"/>
<path d="M18730 3500 l0 -530 345 0 345 0 0 65 0 65 -270 0 -270 0 0 175 0
175 210 0 210 0 0 65 0 65 -210 0 -210 0 0 160 0 160 265 0 265 0 0 65 0 65
-340 0 -340 0 0 -530z"/>
<path d="M19640 3500 l0 -530 80 0 80 0 0 210 0 210 148 0 c133 0 152 -2 192
-22 69 -35 87 -81 101 -255 l12 -143 74 0 75 0 -7 88 c-20 264 -34 311 -107
378 -37 33 -39 38 -23 47 41 22 95 81 115 125 45 96 12 262 -67 333 -88 79
-135 89 -430 89 l-243 0 0 -530z m483 389 c150 -41 174 -263 37 -339 -42 -23
-57 -25 -202 -28 l-158 -4 0 191 0 191 143 0 c78 0 159 -5 180 -11z"/>
<path d="M21610 3500 l0 -530 75 0 75 0 0 530 0 530 -75 0 -75 0 0 -530z"/>
<path d="M22030 3500 l0 -530 207 0 c156 0 223 4 272 16 187 46 319 175 366
359 19 76 19 234 0 309 -50 190 -186 320 -380 361 -48 10 -132 15 -267 15
l-198 0 0 -530z m457 376 c158 -49 247 -184 247 -376 0 -190 -76 -311 -233
-371 -43 -17 -86 -23 -183 -27 l-128 -5 0 403 0 403 123 -6 c67 -3 145 -13
174 -21z"/>
<path d="M23210 3559 c-102 -259 -195 -498 -207 -530 l-23 -59 79 0 78 0 50
133 50 132 229 3 229 2 50 -132 51 -133 77 -3 c42 -2 77 1 77 5 0 5 -92 242
-204 528 l-204 520 -74 3 -73 3 -185 -472z m349 43 c45 -118 81 -218 81 -223
0 -5 -78 -9 -176 -9 -164 0 -176 1 -169 18 3 9 43 113 87 230 45 117 85 209
89 205 4 -4 44 -104 88 -221z"/>
<path d="M24120 3500 l0 -530 207 0 c230 0 293 10 397 62 81 41 165 127 203
208 42 90 54 148 54 260 0 111 -12 170 -53 258 -35 76 -120 164 -195 205 -99
53 -184 67 -410 67 l-203 0 0 -530z m455 376 c107 -33 184 -106 227 -216 31
-80 30 -241 -1 -323 -31 -79 -77 -136 -141 -175 -77 -46 -108 -53 -252 -59
l-128 -6 0 403 0 403 123 -6 c67 -3 145 -13 172 -21z"/>
<path d="M12820 1830 l0 -530 345 0 345 0 0 65 0 65 -270 0 -270 0 0 175 0
175 215 0 215 0 0 65 0 65 -215 0 -215 0 0 160 0 160 265 0 265 0 0 65 0 65
-340 0 -340 0 0 -530z"/>
<path d="M13740 1830 l0 -530 75 0 75 0 0 406 c0 223 3 403 8 400 4 -2 120
-185 257 -405 l250 -400 88 0 87 -1 0 530 0 530 -75 0 -75 0 -2 -412 -3 -412
-256 409 -256 410 -86 3 -87 3 0 -531z"/>
<path d="M15250 1830 l0 -530 75 0 75 0 0 530 0 530 -75 0 -75 0 0 -530z"/>
<path d="M15670 1830 l0 -530 75 0 75 0 0 405 c0 223 3 405 8 405 4 -1 121
-183 260 -405 l254 -405 84 0 84 0 0 530 0 530 -75 0 -75 0 -2 -409 -3 -409
-255 409 -255 409 -87 0 -88 0 0 -530z"/>
<path d="M16690 2295 l0 -65 168 -2 167 -3 3 -462 2 -463 75 0 75 0 0 465 0
465 165 0 165 0 0 65 0 65 -410 0 -410 0 0 -65z"/>
<path d="M17680 1830 l0 -530 350 0 350 0 0 65 0 65 -272 2 -273 3 -3 173 -2
172 215 0 215 0 0 65 0 65 -212 2 -213 3 0 155 0 155 263 3 262 2 0 65 0 65
-340 0 -340 0 0 -530z"/>
<path d="M18600 1831 l0 -531 75 0 75 0 0 210 0 210 149 0 c156 0 190 -7 229
-43 41 -38 52 -74 63 -195 5 -64 12 -132 15 -149 l5 -33 72 0 73 0 -12 155
c-15 189 -31 243 -92 303 l-45 46 24 15 c51 33 100 95 115 150 41 140 -34 301
-170 363 -48 22 -65 23 -313 26 l-263 3 0 -530z m527 367 c56 -37 76 -84 71
-169 -8 -146 -82 -185 -338 -177 l-105 3 -3 188 -2 189 168 -4 c163 -3 170 -4
209 -30z"/>
<path d="M19640 1830 l0 -530 80 0 80 0 2 405 3 406 255 -406 255 -405 87 0
88 0 0 530 0 530 -80 0 -80 0 -2 -407 -3 -407 -254 407 -255 407 -88 0 -88 0
0 -530z"/>
<path d="M20760 1830 l0 -530 345 0 345 0 0 65 0 65 -270 0 -270 0 0 175 0
175 215 0 215 0 0 65 0 65 -215 0 -215 0 0 160 0 160 265 0 265 0 0 65 0 65
-340 0 -340 0 0 -530z"/>
<path d="M21580 2295 l0 -65 168 -2 167 -3 3 -462 2 -463 75 0 75 0 2 463 3
462 168 3 167 2 0 65 0 65 -415 0 -415 0 0 -65z"/>
</g>
</svg>
